<?xml version="1.0" encoding="UTF-8" standalone="no"?>
<!-- Created with Inkscape (http://www.inkscape.org/) -->

<svg
   xmlns:dc="http://purl.org/dc/elements/1.1/"
   xmlns:cc="http://creativecommons.org/ns#"
   xmlns:rdf="http://www.w3.org/1999/02/22-rdf-syntax-ns#"
   xmlns:svg="http://www.w3.org/2000/svg"
   xmlns="http://www.w3.org/2000/svg"
   xmlns:xlink="http://www.w3.org/1999/xlink"
   xmlns:sodipodi="http://sodipodi.sourceforge.net/DTD/sodipodi-0.dtd"
   xmlns:inkscape="http://www.inkscape.org/namespaces/inkscape"
   width="104.31438mm"
   height="66.928749mm"
   viewBox="0 0 104.31438 66.928749"
   version="1.1"
   id="svg8"
   inkscape:version="0.92.1 r15371"
   sodipodi:docname="logo-black-complete.svg">
  <defs
     id="defs2" />
  <sodipodi:namedview
     id="base"
     pagecolor="#ffffff"
     bordercolor="#666666"
     borderopacity="1.0"
     inkscape:pageopacity="0.0"
     inkscape:pageshadow="2"
     inkscape:zoom="0.35"
     inkscape:cx="-338.58478"
     inkscape:cy="-276.37735"
     inkscape:document-units="mm"
     inkscape:current-layer="layer1"
     showgrid="false"
     fit-margin-top="1"
     fit-margin-left="1"
     fit-margin-right="1"
     fit-margin-bottom="1"
     inkscape:window-width="1920"
     inkscape:window-height="1017"
     inkscape:window-x="-8"
     inkscape:window-y="-8"
     inkscape:window-maximized="1" />
  <metadata
     id="metadata5">
    <rdf:RDF>
      <cc:Work
         rdf:about="">
        <dc:format>image/svg+xml</dc:format>
        <dc:type
           rdf:resource="http://purl.org/dc/dcmitype/StillImage" />
        <dc:title></dc:title>
      </cc:Work>
    </rdf:RDF>
  </metadata>
  <g
     inkscape:label="Livello 1"
     inkscape:groupmode="layer"
     id="layer1"
     transform="translate(-54.432102,-8.779741)">
    <g
       id="g4644"
       transform="matrix(0.26458333,0,0,0.26458333,366.71439,1348.201)">
      <g
         class="st0"
         id="Livello_1"
         style="display:none">
        <rect
           height="1440"
           width="2560"
           class="st1"
           y="-5158.1001"
           x="-651.79999"
           id="XMLID_4_"
           style="display:inline;fill:none;stroke:#000000;stroke-miterlimit:10" />
        <rect
           height="1440"
           width="2560"
           class="st1"
           y="-3718.1001"
           x="-651.79999"
           id="XMLID_11_"
           style="display:inline;fill:none;stroke:#000000;stroke-miterlimit:10" />
        <rect
           height="1440"
           width="2560"
           class="st1"
           y="-2278.1001"
           x="-651.79999"
           id="XMLID_47_"
           style="display:inline;fill:none;stroke:#000000;stroke-miterlimit:10" />
      </g>
      <g
         id="Livello_2">
        <g
           class="st0"
           id="XMLID_25_"
           style="display:none" />
        <rect
           height="1492"
           width="615.20001"
           class="st2"
           y="-4679"
           x="-2910"
           id="XMLID_16_"
           style="display:none;fill:#ffffff" />
        <g
           id="XMLID_18184_">
          <g
             id="XMLID_120_">
            <path
               d="m -1094.8,-4967.2 c 0.5,2.7 1.7,4.6 4.4,4.6 2.1,0 3.8,-1.2 3.8,-3.7 0,-2.7 -2.1,-3.3 -4.1,-4.2 -2.9,-1.3 -5.7,-2.2 -5.7,-6.2 0,-3.7 2.8,-5.7 5.9,-5.7 3.4,0 5.3,2.1 6.2,5.5 l -2.5,0.8 c -0.5,-2.1 -1.5,-3.6 -3.7,-3.6 -1.7,0 -3.3,0.9 -3.3,2.9 0,2 1.2,2.6 2.7,3.4 l 4.3,2 c 1.8,1.1 2.8,2.8 2.8,5.1 0,4.1 -2.7,6.5 -6.4,6.5 -3.8,0 -6.1,-2.6 -6.7,-6.5 z"
               id="XMLID_18177_"
               inkscape:connector-curvature="0" />
            <path
               d="m -1072.6,-4979.5 h -5.6 v -2.5 h 13.6 v 2.5 h -5.5 v 19.2 h -2.6 v -19.2 z"
               id="XMLID_18174_"
               inkscape:connector-curvature="0" />
            <path
               d="m -1018.6,-4982 v 14.8 c 0,3.2 0.9,4.7 3.5,4.7 3.3,0 4,-1.5 4,-4.7 v -14.8 h 2.6 v 16.1 c 0,2.9 -1.9,6 -6.4,6 -4.4,0 -6.3,-3 -6.3,-6.1 v -16 z"
               id="XMLID_18165_"
               inkscape:connector-curvature="0" />
            <path
               d="m -949.7,-4981.7 h 6.7 c 5.7,0 8.3,2.5 8.3,10.6 0,6.8 -1.1,11.1 -8.3,11.1 h -6.7 v -2.5 h 2.1 v -16.7 h -2.1 z m 4.6,19.2 h 2.8 c 3.4,0 4.9,-2.1 4.9,-8.3 0,-6.7 -1.8,-8.4 -5,-8.4 h -2.7 z"
               id="XMLID_18162_"
               inkscape:connector-curvature="0" />
            <path
               d="m -927.2,-4962.8 h 2.8 v -16.7 h -2.8 v -2.5 h 8.3 v 2.5 h -2.9 v 16.7 h 2.9 v 2.5 h -8.3 z"
               id="XMLID_18160_"
               inkscape:connector-curvature="0" />
            <path
               d="m -868.9,-4971.1 c 0,1.7 -0.1,11.2 -7.2,11.2 -3.3,0 -7.2,-2.5 -7.2,-11.2 0,-8.7 3.8,-11.2 7.2,-11.2 3.3,-0.1 7.2,2.4 7.2,11.2 z m -11.6,0 c 0,3.2 0.5,8.6 4.5,8.6 4,0 4.5,-5.4 4.5,-8.6 0,-3.2 -0.5,-8.6 -4.5,-8.6 -4,0 -4.5,5.4 -4.5,8.6 z"
               id="XMLID_18157_"
               inkscape:connector-curvature="0" />
          </g>
          <g
             id="XMLID_18180_">
            <g
               id="XMLID_18147_">
              <rect
                 height="64.5"
                 width="25.1"
                 y="-5058.6001"
                 x="-935.29999"
                 id="XMLID_18153_" />
              <path
                 d="m -868.5,-4999.7 c -0.4,-1.8 -0.4,-4.1 -0.4,-6.8 v -0.5 c 0,-5.6 -1.5,-10.2 -4.3,-13.4 -2.9,-3.4 -7.2,-5.2 -12.6,-5.4 -0.6,0 -1.1,0 -1.2,-0.1 -1.4,0 -2.6,-1.2 -2.6,-2.6 0,-1.4 1.2,-2.6 2.6,-2.6 0.1,0 1,0 1.3,-0.1 3,-0.1 17.9,-1.4 17.9,-12.9 0,-3.9 -1.8,-7.3 -5.3,-9.8 -4.4,-3.1 -11.2,-4.7 -20.2,-4.7 h -5.6 c 0.9,0.5 1.7,1.2 2.3,2.1 1.4,2 1.9,3.9 1.9,7.1 v 5.6 c 0,7.7 -0.7,10.1 -2.2,12.4 -0.9,1.4 -2.1,2.1 -3.3,2.5 1.5,0.7 2.6,1.7 3.2,3.1 1.1,2.4 1.2,5.8 1.4,12.7 0,1.1 0.1,2.2 0.1,3.4 0.2,5.8 1.9,10.2 5,13 3.1,2.7 7.7,4.1 13.7,4.1 4.7,0 8.7,-0.9 12,-2.7 -1.4,-0.3 -3.1,-1.2 -3.7,-4.4 z"
                 id="XMLID_18149_"
                 inkscape:connector-curvature="0" />
            </g>
            <g
               id="XMLID_18102_">
              <path
                 d="m -1154.5,-5020 v -12.9 c -1.9,3.8 -4.8,5.6 -7.7,6.4 0.9,0.3 1.9,0.7 2.8,1.2 2.1,1.2 3.7,3 4.9,5.3 z"
                 id="XMLID_18139_"
                 inkscape:connector-curvature="0" />
              <path
                 d="m -1142.1,-5047.4 v -9.8 h -9.6 c 1.9,0.8 3.6,1.9 5.1,3.4 2,1.9 3.4,4.1 4.5,6.4 z"
                 id="XMLID_18135_"
                 inkscape:connector-curvature="0" />
              <rect
                 height="63.5"
                 width="6.0999999"
                 y="-5057.2002"
                 x="-1176.5"
                 id="XMLID_18122_" />
              <path
                 d="m -1143.5,-4996.2 c -1.3,1 -2.6,1.8 -4.1,2.5 h 10.9 v -11.9 c -1.8,4.1 -4.1,7.2 -6.8,9.4 z"
                 id="XMLID_18120_"
                 inkscape:connector-curvature="0" />
            </g>
            <g
               id="XMLID_1019_">
              <path
                 d="m -986.5,-5020 v -12.9 c -1.9,3.8 -4.8,5.6 -7.7,6.4 0.9,0.3 1.9,0.7 2.8,1.2 2.1,1.2 3.7,3 4.9,5.3 z"
                 id="XMLID_18100_"
                 inkscape:connector-curvature="0" />
              <path
                 d="m -974.1,-5047.4 v -9.8 h -9.6 c 1.9,0.8 3.6,1.9 5.1,3.4 2,1.9 3.4,4.1 4.5,6.4 z"
                 id="XMLID_18088_"
                 inkscape:connector-curvature="0" />
              <rect
                 height="63.5"
                 width="6.0999999"
                 y="-5057.2002"
                 x="-1008.5"
                 id="XMLID_18082_" />
              <path
                 d="m -975.5,-4996.2 c -1.3,1 -2.6,1.8 -4.1,2.5 h 10.9 v -11.9 c -1.9,4.1 -4.1,7.2 -6.8,9.4 z"
                 id="XMLID_18076_"
                 inkscape:connector-curvature="0" />
            </g>
            <g
               id="XMLID_825_">
              <path
                 d="m -807.7,-5020 v -12.9 c -1.9,3.8 -4.8,5.6 -7.7,6.4 0.9,0.3 1.9,0.7 2.8,1.2 2.1,1.2 3.8,3 4.9,5.3 z"
                 id="XMLID_1015_"
                 inkscape:connector-curvature="0" />
              <path
                 d="m -795.2,-5047.4 v -9.8 h -9.6 c 1.9,0.8 3.6,1.9 5.1,3.4 1.9,1.9 3.4,4.1 4.5,6.4 z"
                 id="XMLID_948_"
                 inkscape:connector-curvature="0" />
              <rect
                 height="63.5"
                 width="6.0999999"
                 y="-5057.2002"
                 x="-829.59998"
                 id="XMLID_866_" />
              <path
                 d="m -796.6,-4996.2 c -1.3,1 -2.6,1.8 -4.1,2.5 h 10.9 v -11.9 c -1.9,4.1 -4.1,7.2 -6.8,9.4 z"
                 id="XMLID_827_"
                 inkscape:connector-curvature="0" />
            </g>
            <g
               id="XMLID_418_">
              <path
                 d="m -1048.8,-5058.6 c 3.1,1.3 6,3.5 8.5,6.6 2.3,2.8 4.2,6.3 5.4,10 l -0.5,-16.6 z"
                 id="XMLID_618_"
                 inkscape:connector-curvature="0" />
              <path
                 d="m -1091.3,-5058.6 h -13.4 l -0.5,16.6 c 1.3,-3.8 3.1,-7.2 5.4,-10 2.5,-3.1 5.4,-5.3 8.5,-6.6 z"
                 id="XMLID_612_"
                 inkscape:connector-curvature="0" />
              <rect
                 height="64.5"
                 width="26.1"
                 y="-5058.6001"
                 x="-1083.1"
                 id="XMLID_437_" />
            </g>
          </g>
          <g
             id="XMLID_18155_">
            <g
               id="XMLID_399_">
              <rect
                 height="115.4"
                 width="5.9000001"
                 y="-4928.6001"
                 x="-994.59998"
                 id="XMLID_223_" />
            </g>
            <rect
               height="114.1"
               width="3.4000001"
               transform="matrix(-0.7071,-0.7071,0.7071,-0.7071,1760.0635,-9012.8008)"
               y="-4928"
               x="-988.29999"
               id="XMLID_184_" />
            <g
               id="XMLID_171_">
              <rect
                 height="2"
                 width="114.3"
                 transform="matrix(-0.7071,-0.7071,0.7071,-0.7071,1760.0071,-9012.8379)"
                 y="-4871.8999"
                 x="-1043.7"
                 id="XMLID_216_" />
            </g>
            <g
               id="XMLID_122_">
              <polygon
                 points="-1044,-4867.7 -930,-4867.7 -930,-4869 -1044,-4869 "
                 id="XMLID_212_" />
            </g>
            <polygon
               points="-981.9,-4867.7 -983.4,-4869.2 -984.6,-4870.4 -987.1,-4872.8 -988.6,-4874.4 -994.6,-4880.4 -994.6,-4877.5 -994.6,-4869.2 -994.6,-4867.7 -994.6,-4865.3 -994.6,-4860.5 -988.6,-4866.4 -987.3,-4867.7 -984.8,-4867.7 "
               id="XMLID_121_" />
          </g>
        </g>
      </g>
    </g>
  </g>
  <style
     id="style4485"
     type="text/css">
	.st0{fill:#9D9331;}
</style>
  <style
     id="style5064"
     type="text/css">
	.st0{fill:#9D9331;}
	.st1{fill:none;stroke:#FFFFFF;stroke-width:3;stroke-linecap:round;stroke-miterlimit:10;}
	.st2{fill:none;stroke:#358FC0;stroke-width:3.5;stroke-linecap:round;stroke-miterlimit:10;}
	.st3{fill:#31332E;}
</style>
  <style
     id="style4535"
     type="text/css">
	.st0{display:none;}
	.st1{display:inline;fill:none;stroke:#000000;stroke-miterlimit:10;}
	.st2{display:none;fill:#FFFFFF;}
</style>
</svg>
