<?xml version="1.0" standalone="no"?>
<!DOCTYPE svg PUBLIC "-//W3C//DTD SVG 20010904//EN"
 "http://www.w3.org/TR/2001/REC-SVG-20010904/DTD/svg10.dtd">
<svg version="1.0" xmlns="http://www.w3.org/2000/svg"
 width="131.000000pt" height="131.000000pt" viewBox="0 0 131.000000 131.000000"
 preserveAspectRatio="xMidYMid meet">
<metadata>
Created by potrace 1.11, written by Peter Selinger 2001-2013
</metadata>
<g transform="translate(0.000000,131.000000) scale(0.100000,-0.100000)"
fill="#000000" stroke="none">
<path d="M579 1063 c0 -5 -1 -72 -1 -150 0 -79 -3 -143 -6 -143 -4 0 -50 44
-104 97 -54 53 -101 94 -105 90 -4 -4 41 -56 100 -115 91 -92 107 -112 107
-139 l0 -32 -157 -4 -158 -3 158 -2 c86 -1 157 -5 157 -10 0 -4 -47 -54 -105
-112 -93 -93 -121 -130 -98 -130 4 0 54 46 111 103 l103 102 -1 -145 c-1 -80
-1 -151 -1 -157 1 -7 10 -13 21 -13 19 0 20 7 20 180 0 136 3 180 12 180 7 0
70 -57 140 -127 71 -70 128 -121 128 -113 0 9 -50 65 -110 125 l-110 110 167
5 168 6 -176 2 c-97 1 -179 5 -183 9 -4 4 52 66 125 139 88 88 127 134 119
139 -8 5 -57 -37 -139 -119 -69 -69 -130 -126 -134 -126 -4 0 -7 81 -7 180 0
173 -1 180 -20 180 -11 0 -20 -3 -21 -7z"/>
</g>
</svg>
